<svg version="1.1" xmlns="http://www.w3.org/2000/svg" fill="#3b5998" width="32" height="32" viewBox="0 0 32 32">
    <title>facebook</title>
    <g>
        <rect fill="#fff" width="32" height="32" rx="32"/>
    </g>
    <g>
        <path d="M32 16.038q0-3.305-1.239-6.197t-3.455-5.108-5.108-3.455-6.197-1.239-6.197 1.239-5.108 3.455-3.455 5.108-1.239 6.197q0 2.93 0.939 5.521t2.704 4.695 4.094 3.531 5.033 1.953v-10.892h-3.155v-4.808h3.155v-3.981q0-1.577 0.789-2.854t2.028-2.028 2.817-0.751h3.981v4.808h-3.155q-0.676 0-1.164 0.488t-0.488 1.089v3.23h4.808v4.808h-4.808v11.117q3.080-0.3 5.709-1.653t4.582-3.493 3.042-4.883 1.089-5.897z"></path>
    </g>
</svg>
