<svg version="1.1" xmlns="http://www.w3.org/2000/svg" fill="#bd081c" width="32" height="32" viewBox="0 0 32 32">
    <title>pinterest</title>
    <g>
        <rect fill="#fff" width="32" height="32" rx="32"/>
    </g>
    <g>
        <path d="M16 0c-8.835 0-15.996 7.162-15.996 15.996 0 6.779 4.219 12.563 10.169 14.893-0.137-1.262-0.267-3.209 0.058-4.587 0.288-1.248 1.875-7.948 1.875-7.948s-0.476-0.959-0.476-2.373c0-2.221 1.291-3.887 2.892-3.887 1.363 0 2.027 1.024 2.027 2.25 0 1.37-0.873 3.426-1.327 5.322-0.382 1.594 0.793 2.892 2.366 2.892 2.842 0 5.027-3 5.027-7.327 0-3.83-2.755-6.505-6.678-6.505-4.551 0-7.219 3.411-7.219 6.945 0 1.377 0.526 2.849 1.19 3.649 0.13 0.159 0.151 0.296 0.108 0.462-0.123 0.505-0.389 1.594-0.447 1.817-0.072 0.296-0.231 0.353-0.534 0.216-1.998-0.93-3.245-3.851-3.245-6.195 0-5.048 3.664-9.679 10.566-9.679 5.546 0 9.859 3.952 9.859 9.239 0 5.51-3.476 9.953-8.301 9.953-1.623 0-3.144-0.844-3.664-1.839 0 0-0.801 3.051-0.995 3.801-0.361 1.392-1.334 3.13-1.991 4.19 1.5 0.462 3.087 0.714 4.738 0.714 8.835 0 15.996-7.162 15.996-15.996 0-8.842-7.162-16.004-15.996-16.004z"></path>
    </g>
</svg>
